<?xml version="1.0" encoding="utf-8"?>
<!-- Generator: Adobe Illustrator 24.3.0, SVG Export Plug-In . SVG Version: 6.00 Build 0)  -->
<svg version="1.1" xmlns="http://www.w3.org/2000/svg" xmlns:xlink="http://www.w3.org/1999/xlink" x="0px" y="0px"
	 viewBox="0 0 200 200" style="enable-background:new 0 0 200 200;" xml:space="preserve">
<style type="text/css">
	.st0{fill:#595452;}
	.st1{fill:#FFFFFF;}
	.st2{font-family:'Rockwell-Bold';}
	.st3{font-size:13.5284px;}
</style>
<g id="圖層_2">
	<g>
		<circle class="st0" cx="100" cy="100" r="69.7"/>
	</g>
</g>
<g id="圖層_1">
	<g>
		<path class="st1" d="M93.2,96.2c-0.1-1.6-1.4-2.9-2.9-2.7c-1.2,0.1-1.3-0.3-1.3-1.3c0-4.6,0-9.2,0-13.8c0-1.2-0.5-1.5-1.5-1.2
			c-2.1,0.5-3.3,1.7-3.5,3.9c-0.3,3.7-0.1,7.4-0.1,11.2c0,0.9-0.1,1.3-1.2,1.2c-1.5-0.2-2.7,1.1-2.9,2.6c-0.2,1.5,0.8,3,2.3,3.3
			c1.8,0.4,3.5-0.9,3.6-3.1c0.1-1.7,0-3.3,0-5.2c1.3,0.5,1.7,1.2,1.6,2.3c0,1.3-0.2,2.6,0.2,3.8c0.5,1.6,2.1,2.4,3.7,2
			C92.4,98.9,93.3,97.6,93.2,96.2L93.2,96.2z M82.6,97.7c-0.8,0-1.2-0.5-1.1-1.3c0-0.6,0.4-1.1,1-1.2c0,0,0.1,0,0.1,0
			c0.8,0,1.2,0.5,1.2,1.3C83.7,97.2,83.4,97.7,82.6,97.7z M87.3,84.5c0,1.5,0,2.9,0,4.4c0,0.3,0.1,0.6-0.2,0.8
			c-0.3,0.1-0.5-0.1-0.7-0.3c-0.4-0.3-0.8-0.6-0.8-1.2c0-2.3,0.1-4.6,0.1-6.8c0-0.4,0.1-0.7,0.3-1.1c0.2-0.5,0.6-1,1.2-0.8
			c0.5,0.1,0.3,0.7,0.3,1.2C87.3,81.8,87.3,83.1,87.3,84.5z M90.2,97.7c-0.8-0.1-1.2-0.5-1.2-1.3c0-0.7,0.6-1.2,1.2-1.2
			c0.7,0,1.2,0.6,1.2,1.2C91.5,97.2,91,97.6,90.2,97.7L90.2,97.7z"/>
		<path class="st1" d="M101.6,88.4c0-3.3,0-6.7,0-10c0-0.7,0-1.2-0.9-1.2c-2.2,0-4.3,0-6.5,0c-0.6,0-0.9,0.2-0.9,0.9
			c0,0.6,0.3,0.8,0.9,0.8c0.6,0,1,0,1.6,0c0.4,0,0.9-0.1,0.8,0.5c0,0.5-0.5,0.3-0.8,0.4c-0.5,0-0.9,0-1.4,0c-0.6,0-1.1,0.1-1.1,0.9
			c0,0.8,0.5,0.8,1,0.8c0.4,0,0.9,0,1.3,0c0.4,0,1-0.2,1,0.5c0,0.6-0.6,0.3-0.9,0.4c-0.3,0-0.7,0-1,0c-0.6,0-1.4-0.2-1.4,0.9
			c0,1,0.7,0.8,1.3,0.8c0.4,0,0.9,0,1.3,0c0.3,0,0.7,0,0.7,0.5s-0.5,0.4-0.8,0.4c-0.5,0-1,0-1.6,0c-0.6,0-1,0.2-1,0.9
			c0,0.8,0.4,0.8,1,0.8c0.6,0,1.1,0,1.7,0c0.3,0,0.6,0.1,0.6,0.5s-0.4,0.4-0.6,0.4c-0.6,0-1.2,0-1.8,0c-0.6,0-0.8,0.3-0.8,0.9
			c0,0.6,0.3,0.8,0.9,0.8c0.7,0,1.3,0,2,0c0.2,0,0.4,0.2,0.5,0.4c0,0,0,0,0,0c0,0.3-0.2,0.4-0.5,0.4c-0.7,0-1.3,0-2,0
			c-0.6,0-0.8,0.3-0.8,0.9c0,0.6,0.3,0.8,0.9,0.8c2.5,0.2,2.5,0.2,2.5,2.9v1.1c0,3.8,0,3.8,3.8,3.8c0.9,0,1.2-0.3,1.2-1.2
			C101.5,95,101.6,91.7,101.6,88.4z M99.9,88.4c0,2.8,0,5.5,0,8.3c0,0.6,0,1.1-0.9,1.1c-0.8,0-0.8-0.5-0.8-1c0-5.6,0-11.2,0-16.7
			c0-0.6,0.1-1.1,0.9-1.1c0.9,0,0.8,0.7,0.8,1.2C99.9,82.8,99.9,85.6,99.9,88.4z"/>
		<path class="st1" d="M118.3,77c-2,0-4,0-6,0c-2.1,0-4.2,0-6.4,0c-1.3,0-1.9,0.7-1.9,2.4c0,1.8,0,3.7,0,5.5c0,1.6,0.5,2.5,1.8,2.5
			c1,0,2,0.1,2.9,0c0.6-0.1,0.9,0.1,1.1,0.6v10.7h0c0,0.4,0.1,0.8,0.7,0.8s0.8-0.4,0.8-0.8l0,0V88c0.1-0.3,0.2-0.5,0.7-0.5
			c0.3,0,0.6,0.1,0.7,0.4v11l0,0c0,0.5,0.2,0.8,0.9,0.8c0.4,0,0.7-0.2,0.8-0.6c0-0.1,0-0.1,0-0.2l0,0V88c0.1-0.5,0.4-0.6,1-0.6
			c1,0.1,2.1,0,3.1,0c1.1,0,1.7-0.8,1.7-2.2c0-1.9,0-3.8,0-5.7C120.3,77.8,119.6,77,118.3,77z M118.8,85.4c0,0.1,0,0.1-0.1,0.2h-0.2
			c-0.2,0-0.4,0-0.5,0c-1.9,0-3.8,0-5.7,0c-2,0-3.9,0-5.9,0c-0.2,0-0.3,0-0.5,0h-0.3c-0.1,0-0.1-0.1-0.1-0.2v-0.9
			c0-0.1,0-0.2,0.1-0.2h13.1c0.1,0,0.1,0.1,0.1,0.2L118.8,85.4z M118.8,83c0,0.1,0,0.1-0.1,0.2h-13.1c-0.1,0-0.1-0.1-0.1-0.2v-1
			c0-0.1,0-0.2,0.1-0.2h13.1c0.1,0,0.1,0.1,0.1,0.2L118.8,83z M118.8,79.7c0,0.1,0,0.2-0.1,0.2h-13.1c-0.1,0-0.1-0.1-0.1-0.2v-0.5
			c0-0.1,0-0.1,0.1-0.2h13.1c0,0,0,0,0.1,0h0l0,0c0,0,0.1,0.1,0.1,0.1L118.8,79.7z"/>
		<text transform="matrix(1 0 0 1 55.2441 117.6578)" class="st1 st2 st3">Sha</text>
		<text transform="matrix(1 0 0 1 78.7695 117.6578)" class="st1 st2 st3">k</text>
		<text transform="matrix(1 0 0 1 87.1055 117.6578)" class="st1 st2 st3">es Beard</text>
		<path class="st1" d="M99.9,46.8c-29.5,0-53.1,23.6-53.2,53.1c-0.1,29.6,23.9,53.3,53.2,53.3c29.3,0,53.2-23.8,53.2-53.2
			C153.2,70.8,129.6,46.7,99.9,46.8z M151.2,102.1c-1.1,29.6-26.7,50.4-53.4,49.1c-29.4-1.3-51.1-26.8-49-55
			c2-28.2,26.6-49.4,54.8-47.3c0,0,0,0,0.1,0C132.7,51,152.5,76,151.2,102.1z"/>
		<path class="st1" d="M158.5,84.7c-0.1-0.3-0.1-0.5-0.2-0.7l-0.2-0.8l-1.7,0.5l0.2,0.7l0.2,0.6c4.6,20.3,0.7,38.7-13.5,54.3
			c-14.5,15.9-32.8,21.4-54,18.4c-0.1,0.6-0.1,1.1-0.2,1.8c1.5,0.2,2.8,0.5,4,0.6c2.4,0.2,4.7,0.4,7.1,0.4
			c17.6-0.2,32.6-6.6,44.4-19.7C159.1,124.7,163.6,105.8,158.5,84.7z"/>
		<path class="st1" d="M110.6,42.4c19,3.5,32.8,14.4,42,31.4l1.5-0.8c-18.8-37.9-68-43.6-94.9-17.6l1.1,1.3
			C74.9,44.1,91.7,39,110.6,42.4z"/>
		<path class="st1" d="M43.7,116.2c-5.4-18.6-1.7-35.8,9.4-51.6l-1.4-1C27,96.3,41.6,142.9,78.4,156.4l0.6-1.6
			C61.2,147.4,49.1,134.7,43.7,116.2z"/>
	</g>
</g>
</svg>
