<svg id="圖層_1" data-name="圖層 1" xmlns="http://www.w3.org/2000/svg" viewBox="0 0 200 200"><defs><style>.cls-1{fill:#595452;}.cls-2{fill:#fff;}.cls-3{isolation:isolate;}</style></defs><g id="圖層_2" data-name="圖層 2"><circle class="cls-1" cx="99.8" cy="98.8" r="79.3"/></g><g id="圖層_1-2" data-name="圖層 1"><path class="cls-2" d="M93,95a2.73,2.73,0,0,0-2.9-2.7c-1.2.1-1.3-.3-1.3-1.3V77.2c0-1.2-.5-1.5-1.5-1.2a4.07,4.07,0,0,0-3.5,3.9c-.3,3.7-.1,7.4-.1,11.2,0,.9-.1,1.3-1.2,1.2a2.77,2.77,0,0,0-2.9,2.6,3,3,0,0,0,2.3,3.3,3,3,0,0,0,3.6-3.1c.1-1.7,0-3.3,0-5.2,1.3.5,1.7,1.2,1.6,2.3a12,12,0,0,0,.2,3.8A3,3,0,0,0,91,98a2.88,2.88,0,0,0,2-3ZM82.4,96.5a1,1,0,0,1-1.1-1.3,1.19,1.19,0,0,1,1-1.2h.1c.8,0,1.2.5,1.2,1.3A1.22,1.22,0,0,1,82.4,96.5Zm4.7-13.2v4.4c0,.3.1.6-.2.8s-.5-.1-.7-.3c-.4-.3-.8-.6-.8-1.2,0-2.3.1-4.6.1-6.8a2.28,2.28,0,0,1,.3-1.1c.2-.5.6-1,1.2-.8s.3.7.3,1.2A22.37,22.37,0,0,0,87.1,83.3ZM90,96.5a1.18,1.18,0,0,1-1.2-1.3,1.2,1.2,0,1,1,2.4,0c.1.8-.4,1.2-1.2,1.3Z"/><path class="cls-2" d="M101.4,87.1v-10c0-.7,0-1.2-.9-1.2H94c-.6,0-.9.2-.9.9s.3.8.9.8h1.6c.4,0,.9-.1.8.5s-.5.3-.8.4H94.2c-.6,0-1.1.1-1.1.9s.5.8,1,.8h1.3c.4,0,1-.2,1,.5s-.6.3-.9.4h-1c-.6,0-1.4-.2-1.4.9s.7.8,1.3.8h1.3c.3,0,.7,0,.7.5s-.5.4-.8.4H94c-.6,0-1,.2-1,.9s.4.8,1,.8h1.7c.3,0,.6.1.6.5s-.4.4-.6.4H93.9c-.6,0-.8.3-.8.9s.3.8.9.8h2a.66.66,0,0,1,.5.4h0c0,.3-.2.4-.5.4H94c-.6,0-.8.3-.8.9s.3.8.9.8c2.5.2,2.5.2,2.5,2.9v1.1c0,3.8,0,3.8,3.8,3.8.9,0,1.2-.3,1.2-1.2C101.3,93.7,101.4,90.5,101.4,87.1Zm-1.7,0v8.3c0,.6,0,1.1-.9,1.1s-.8-.5-.8-1V78.8c0-.6.1-1.1.9-1.1s.8.7.8,1.2Z"/><path class="cls-2" d="M118.1,75.8H105.7c-1.3,0-1.9.7-1.9,2.4v5.5c0,1.6.5,2.5,1.8,2.5a28,28,0,0,0,2.9,0,.86.86,0,0,1,1.1.6V97.5h0c0,.4.1.8.7.8a.73.73,0,0,0,.8-.8h0V86.7c.1-.3.2-.5.7-.5a.67.67,0,0,1,.7.4v11h0c0,.5.2.8.9.8a.76.76,0,0,0,.8-.6v-.2h0V86.8c.1-.5.4-.6,1-.6,1,.1,2.1,0,3.1,0s1.7-.8,1.7-2.2V78.3C120.1,76.6,119.4,75.8,118.1,75.8Zm.5,8.4c0,.1,0,.1-.1.2H105.4c-.1,0-.1-.1-.1-.2v-.9c0-.1,0-.2.1-.2h13.1c.1,0,.1.1.1.2Zm0-2.5c0,.1,0,.1-.1.2H105.4c-.1,0-.1-.1-.1-.2v-1c0-.1,0-.2.1-.2h13.1c.1,0,.1.1.1.2Zm0-3.2c0,.1,0,.2-.1.2H105.4c-.1,0-.1-.1-.1-.2V78c0-.1,0-.1.1-.2h13.2l.1.1Z"/><g class="cls-3"><path class="cls-2" d="M55.67,116.44v-3.13h1.56a1.8,1.8,0,0,0,.45,1.27,1.34,1.34,0,0,0,1,.4,1,1,0,0,0,.72-.29,1,1,0,0,0,0-1.4,4.07,4.07,0,0,0-1-.66,8.12,8.12,0,0,1-2.16-1.35,2.2,2.2,0,0,1-.57-1.59,2.37,2.37,0,0,1,.75-1.87,2.55,2.55,0,0,1,1.71-.66,2,2,0,0,1,1.7.86v-.77H61.3v2.8H59.75a1.6,1.6,0,0,0-.44-1,1.22,1.22,0,0,0-.87-.36,1,1,0,0,0-.65.21.63.63,0,0,0-.26.53.84.84,0,0,0,.21.54,4.37,4.37,0,0,0,1.28.72,11.71,11.71,0,0,1,1.56.82,2.64,2.64,0,0,1,.86,1,2.81,2.81,0,0,1,.32,1.35,2.56,2.56,0,0,1-.79,2.05,2.77,2.77,0,0,1-1.88.68,2.15,2.15,0,0,1-1.86-.89v.78Z"/><path class="cls-2" d="M62.58,116.44V115h1v-6.24h-1v-1.48h3.06v3.31a3.23,3.23,0,0,1,1.82-.67c1.31,0,2,.79,2,2.36V115h.94v1.47h-3v-4.1a.89.89,0,0,0-.16-.62.66.66,0,0,0-.49-.17,2.18,2.18,0,0,0-1.09.41v3h.92v1.47Z"/><path class="cls-2" d="M78.36,115v1.47H75.29v-.5a2.92,2.92,0,0,1-1.75.6A2.6,2.6,0,0,1,71.9,116a1.74,1.74,0,0,1-.69-1.45,2,2,0,0,1,.73-1.54,2.8,2.8,0,0,1,1.88-.62,4.3,4.3,0,0,1,1.47.32v-.39a1.06,1.06,0,0,0-.33-.8,1.24,1.24,0,0,0-.89-.31,1.59,1.59,0,0,0-1.17.5l-1.65-.3c.48-1,1.51-1.51,3.1-1.51a4.7,4.7,0,0,1,1.53.21,2.13,2.13,0,0,1,.91.54,1.89,1.89,0,0,1,.42.72,4.84,4.84,0,0,1,.12,1.28V115Zm-3.07-.89a2.44,2.44,0,0,0-1.18-.46,1,1,0,0,0-.64.2.69.69,0,0,0-.29.59.89.89,0,0,0,.23.61.81.81,0,0,0,.6.25,2,2,0,0,0,1.28-.67Z"/></g><g class="cls-3"><path class="cls-2" d="M79,116.44V115h1v-6.24H79v-1.48h3.06v5.81l2.2-1.79H82.93v-1.22h3.86v1.29h-.64l-1.87,1.6L86,115h.88v1.47h-2l-2.83-3.38v2h.77v1.4Z"/></g><g class="cls-3"><path class="cls-2" d="M92.52,114.51l1.59.51A3.41,3.41,0,0,1,91,116.59a3.73,3.73,0,0,1-2.64-.89,3.09,3.09,0,0,1-.94-2.35,3.35,3.35,0,0,1,3.46-3.46,3.25,3.25,0,0,1,1.9.55,2.93,2.93,0,0,1,1.11,1.39,5.11,5.11,0,0,1,.31,1.84H89.43A1.5,1.5,0,0,0,90,114.9a1.73,1.73,0,0,0,1.06.37A2.1,2.1,0,0,0,92.52,114.51Zm-.38-2a1.64,1.64,0,0,0-.42-.91,1.25,1.25,0,0,0-1-.38c-.75,0-1.19.43-1.31,1.29Z"/><path class="cls-2" d="M95.43,116.44v-2.2h1.49a.91.91,0,0,0,.42.72,1.69,1.69,0,0,0,1,.27,1.45,1.45,0,0,0,.78-.18.49.49,0,0,0,.28-.44.41.41,0,0,0-.26-.39,3.55,3.55,0,0,0-1-.27,5.36,5.36,0,0,1-2.24-.76,1.63,1.63,0,0,1-.68-1.36,1.69,1.69,0,0,1,.64-1.34,2.62,2.62,0,0,1,1.72-.54,4.14,4.14,0,0,1,1.62.32v-.22h1.46v1.85H99.17c-.13-.44-.6-.66-1.4-.66-.59,0-.89.16-.89.49a.31.31,0,0,0,.19.28,4.12,4.12,0,0,0,.92.22,13.32,13.32,0,0,1,1.77.41,2,2,0,0,1,.95.68,1.87,1.87,0,0,1,.35,1.13,2,2,0,0,1-.67,1.54,2.76,2.76,0,0,1-1.9.6,2.1,2.1,0,0,1-1.57-.47v.32Z"/><path class="cls-2" d="M105.37,116.44v-1.55h1.13v-6.08h-1.13v-1.56h4.2a9.41,9.41,0,0,1,2.07.17,2.11,2.11,0,0,1,1.18.78,2.31,2.31,0,0,1,.49,1.47,1.93,1.93,0,0,1-1.29,1.89,2.22,2.22,0,0,1,1.65,2.2,2.44,2.44,0,0,1-.51,1.56,2.52,2.52,0,0,1-1.32.89,8.88,8.88,0,0,1-2.27.23Zm3.52-5.56h.68a1.78,1.78,0,0,0,1-.24,1,1,0,0,0,.33-.84.89.89,0,0,0-.32-.77,2.07,2.07,0,0,0-1.12-.22h-.6Zm0,4h.68a2.33,2.33,0,0,0,1.28-.26,1.1,1.1,0,0,0,.36-.94,1.14,1.14,0,0,0-.39-1,2.24,2.24,0,0,0-1.25-.28h-.68Z"/><path class="cls-2" d="M120,114.51l1.59.51a3.43,3.43,0,0,1-3.12,1.57,3.71,3.71,0,0,1-2.64-.89,3.1,3.1,0,0,1-1-2.35,3.37,3.37,0,0,1,3.47-3.46,3.25,3.25,0,0,1,1.9.55,2.93,2.93,0,0,1,1.11,1.39,5.11,5.11,0,0,1,.31,1.84h-4.76a1.5,1.5,0,0,0,.55,1.23,1.73,1.73,0,0,0,1.06.37A2.1,2.1,0,0,0,120,114.51Zm-.39-2a1.56,1.56,0,0,0-.41-.91,1.25,1.25,0,0,0-1-.38c-.75,0-1.19.43-1.31,1.29Z"/><path class="cls-2" d="M129.82,115v1.47h-3.07v-.5a2.92,2.92,0,0,1-1.75.6,2.6,2.6,0,0,1-1.64-.55,1.74,1.74,0,0,1-.69-1.45,2,2,0,0,1,.73-1.54,2.8,2.8,0,0,1,1.88-.62,4.3,4.3,0,0,1,1.47.32v-.39a1.06,1.06,0,0,0-.33-.8,1.24,1.24,0,0,0-.89-.31,1.59,1.59,0,0,0-1.17.5l-1.65-.3c.48-1,1.51-1.51,3.1-1.51a4.7,4.7,0,0,1,1.53.21,2.13,2.13,0,0,1,.91.54,1.89,1.89,0,0,1,.42.72,4.84,4.84,0,0,1,.12,1.28V115Zm-3.07-.89a2.47,2.47,0,0,0-1.18-.46,1,1,0,0,0-.64.2.69.69,0,0,0-.29.59.89.89,0,0,0,.23.61.81.81,0,0,0,.6.25,2,2,0,0,0,1.28-.67Z"/><path class="cls-2" d="M134.87,115v1.47h-4.49V115h1.18v-3.45h-1.11v-1.47h3v1.62a2.24,2.24,0,0,1,.78-1.21,2.19,2.19,0,0,1,1.44-.51H136v1.92a3.74,3.74,0,0,0-1.26.18,1.48,1.48,0,0,0-.8.75,2.75,2.75,0,0,0-.32,1.37V115Z"/><path class="cls-2" d="M144.29,115v1.47H141.2v-.76a2.58,2.58,0,0,1-1.85.86,2.43,2.43,0,0,1-2-1,3.63,3.63,0,0,1-.79-2.35,3.54,3.54,0,0,1,.81-2.36,2.48,2.48,0,0,1,2-1,2.29,2.29,0,0,1,1.84.87v-2h-1v-1.48h3V115Zm-3.07-1.74a1.82,1.82,0,0,0-.39-1.31,1.24,1.24,0,0,0-.9-.39,1.08,1.08,0,0,0-.93.47,2.16,2.16,0,0,0-.32,1.23,2.2,2.2,0,0,0,.32,1.21,1.06,1.06,0,0,0,.94.49,1.17,1.17,0,0,0,.89-.4A1.82,1.82,0,0,0,141.22,113.23Z"/></g><path class="cls-2" d="M99.7,45.6a53.2,53.2,0,1,0,53.2,53.2A53,53,0,0,0,99.7,45.6Zm51.2,55.3c-1.1,29.6-26.7,50.4-53.4,49.1a51.24,51.24,0,1,1,5.8-102.3h.1A51,51,0,0,1,150.9,100.9Z"/><path class="cls-2" d="M158.3,83.5a6.37,6.37,0,0,0-.2-.7l-.2-.8-1.7.5.2.7.2.6c4.6,20.3.7,38.7-13.5,54.3-14.5,15.9-32.8,21.4-54,18.4-.1.6-.1,1.1-.2,1.8,1.5.2,2.8.5,4,.6,2.4.2,4.7.4,7.1.4,17.6-.2,32.6-6.6,44.4-19.7C158.8,123.5,163.4,104.6,158.3,83.5Z"/><path class="cls-2" d="M110.4,41.2c19,3.5,32.8,14.4,42,31.4l1.5-.8C135.1,34,85.8,28.2,59,54.3l1.1,1.3C74.7,42.9,91.5,37.8,110.4,41.2Z"/><path class="cls-2" d="M43.5,115c-5.4-18.6-1.7-35.8,9.4-51.6l-1.4-1c-24.6,32.7-10.1,79.3,26.7,92.8l.6-1.6C61,146.2,48.9,133.5,43.5,115Z"/></g></svg>