<?xml version="1.0" encoding="utf-8"?>
<!-- Generator: Adobe Illustrator 24.3.0, SVG Export Plug-In . SVG Version: 6.00 Build 0)  -->
<svg version="1.1" xmlns="http://www.w3.org/2000/svg" xmlns:xlink="http://www.w3.org/1999/xlink" x="0px" y="0px"
	 viewBox="0 0 200 200" style="enable-background:new 0 0 200 200;" xml:space="preserve">
<style type="text/css">
	.st0{fill:#595452;}
	.st1{fill:#FFFFFF;}
	.st2{font-family:'Rockwell-Bold';}
	.st3{font-size:13.5284px;}
</style>
<g id="圖層_2">
	<g>
		<circle class="st0" cx="99.8" cy="98.8" r="79.3"/>
	</g>
</g>
<g id="圖層_1">
	<g>
		<path class="st1" d="M93,95c-0.1-1.6-1.4-2.9-2.9-2.7c-1.2,0.1-1.3-0.3-1.3-1.3c0-4.6,0-9.2,0-13.8c0-1.2-0.5-1.5-1.5-1.2
			c-2.1,0.5-3.3,1.7-3.5,3.9c-0.3,3.7-0.1,7.4-0.1,11.2c0,0.9-0.1,1.3-1.2,1.2c-1.5-0.2-2.7,1.1-2.9,2.6c-0.2,1.5,0.8,3,2.3,3.3
			c1.8,0.4,3.5-0.9,3.6-3.1c0.1-1.7,0-3.3,0-5.2c1.3,0.5,1.7,1.2,1.6,2.3c0,1.3-0.2,2.6,0.2,3.8c0.5,1.6,2.1,2.4,3.7,2
			C92.2,97.7,93.1,96.4,93,95L93,95z M82.4,96.5c-0.8,0-1.2-0.5-1.1-1.3c0-0.6,0.4-1.1,1-1.2c0,0,0.1,0,0.1,0c0.8,0,1.2,0.5,1.2,1.3
			C83.5,96,83.1,96.5,82.4,96.5z M87.1,83.3c0,1.5,0,2.9,0,4.4c0,0.3,0.1,0.6-0.2,0.8c-0.3,0.1-0.5-0.1-0.7-0.3
			c-0.4-0.3-0.8-0.6-0.8-1.2c0-2.3,0.1-4.6,0.1-6.8c0-0.4,0.1-0.7,0.3-1.1c0.2-0.5,0.6-1,1.2-0.8c0.5,0.1,0.3,0.7,0.3,1.2
			C87.1,80.6,87.1,81.9,87.1,83.3z M90,96.5c-0.8-0.1-1.2-0.5-1.2-1.3c0-0.7,0.6-1.2,1.2-1.2c0.7,0,1.2,0.6,1.2,1.2
			C91.3,96,90.8,96.4,90,96.5L90,96.5z"/>
		<path class="st1" d="M101.4,87.1c0-3.3,0-6.7,0-10c0-0.7,0-1.2-0.9-1.2c-2.2,0-4.3,0-6.5,0c-0.6,0-0.9,0.2-0.9,0.9
			c0,0.6,0.3,0.8,0.9,0.8c0.6,0,1,0,1.6,0c0.4,0,0.9-0.1,0.8,0.5c0,0.5-0.5,0.3-0.8,0.4c-0.5,0-0.9,0-1.4,0c-0.6,0-1.1,0.1-1.1,0.9
			c0,0.8,0.5,0.8,1,0.8c0.4,0,0.9,0,1.3,0c0.4,0,1-0.2,1,0.5c0,0.6-0.6,0.3-0.9,0.4c-0.3,0-0.7,0-1,0c-0.6,0-1.4-0.2-1.4,0.9
			c0,1,0.7,0.8,1.3,0.8c0.4,0,0.9,0,1.3,0c0.3,0,0.7,0,0.7,0.5s-0.5,0.4-0.8,0.4c-0.5,0-1,0-1.6,0c-0.6,0-1,0.2-1,0.9
			c0,0.8,0.4,0.8,1,0.8c0.6,0,1.1,0,1.7,0c0.3,0,0.6,0.1,0.6,0.5s-0.4,0.4-0.6,0.4c-0.6,0-1.2,0-1.8,0c-0.6,0-0.8,0.3-0.8,0.9
			c0,0.6,0.3,0.8,0.9,0.8c0.7,0,1.3,0,2,0c0.2,0,0.4,0.2,0.5,0.4c0,0,0,0,0,0c0,0.3-0.2,0.4-0.5,0.4c-0.7,0-1.3,0-2,0
			c-0.6,0-0.8,0.3-0.8,0.9c0,0.6,0.3,0.8,0.9,0.8c2.5,0.2,2.5,0.2,2.5,2.9v1.1c0,3.8,0,3.8,3.8,3.8c0.9,0,1.2-0.3,1.2-1.2
			C101.3,93.7,101.4,90.5,101.4,87.1z M99.7,87.1c0,2.8,0,5.5,0,8.3c0,0.6,0,1.1-0.9,1.1c-0.8,0-0.8-0.5-0.8-1c0-5.6,0-11.2,0-16.7
			c0-0.6,0.1-1.1,0.9-1.1c0.9,0,0.8,0.7,0.8,1.2C99.7,81.6,99.7,84.4,99.7,87.1z"/>
		<path class="st1" d="M118.1,75.8c-2,0-4,0-6,0c-2.1,0-4.2,0-6.4,0c-1.3,0-1.9,0.7-1.9,2.4c0,1.8,0,3.7,0,5.5
			c0,1.6,0.5,2.5,1.8,2.5c1,0,2,0.1,2.9,0c0.6-0.1,0.9,0.1,1.1,0.6v10.7h0c0,0.4,0.1,0.8,0.7,0.8s0.8-0.4,0.8-0.8l0,0V86.7
			c0.1-0.3,0.2-0.5,0.7-0.5c0.3,0,0.6,0.1,0.7,0.4v11l0,0c0,0.5,0.2,0.8,0.9,0.8c0.4,0,0.7-0.2,0.8-0.6c0-0.1,0-0.1,0-0.2l0,0V86.8
			c0.1-0.5,0.4-0.6,1-0.6c1,0.1,2.1,0,3.1,0c1.1,0,1.7-0.8,1.7-2.2c0-1.9,0-3.8,0-5.7C120.1,76.6,119.4,75.8,118.1,75.8z
			 M118.6,84.2c0,0.1,0,0.1-0.1,0.2h-0.2c-0.2,0-0.4,0-0.5,0c-1.9,0-3.8,0-5.7,0c-2,0-3.9,0-5.9,0c-0.2,0-0.3,0-0.5,0h-0.3
			c-0.1,0-0.1-0.1-0.1-0.2v-0.9c0-0.1,0-0.2,0.1-0.2h13.1c0.1,0,0.1,0.1,0.1,0.2L118.6,84.2z M118.6,81.7c0,0.1,0,0.1-0.1,0.2h-13.1
			c-0.1,0-0.1-0.1-0.1-0.2v-1c0-0.1,0-0.2,0.1-0.2h13.1c0.1,0,0.1,0.1,0.1,0.2L118.6,81.7z M118.6,78.5c0,0.1,0,0.2-0.1,0.2h-13.1
			c-0.1,0-0.1-0.1-0.1-0.2V78c0-0.1,0-0.1,0.1-0.2h13.1c0,0,0,0,0.1,0h0l0,0c0,0,0.1,0.1,0.1,0.1L118.6,78.5z"/>
		<text transform="matrix(1 0 0 1 55.0287 116.4424)" class="st1 st2 st3">Sha</text>
		<text transform="matrix(1 0 0 1 78.5541 116.4424)" class="st1 st2 st3">k</text>
		<text transform="matrix(1 0 0 1 86.8901 116.4424)" class="st1 st2 st3">es Beard</text>
		<path class="st1" d="M99.7,45.6c-29.5,0-53.1,23.6-53.2,53.1C46.5,128.3,70.4,152,99.7,152c29.3,0,53.2-23.8,53.2-53.2
			C153,69.6,129.4,45.5,99.7,45.6z M150.9,100.9c-1.1,29.6-26.7,50.4-53.4,49.1c-29.4-1.3-51.1-26.8-49-55
			c2-28.2,26.6-49.4,54.8-47.3c0,0,0,0,0.1,0C132.5,49.8,152.3,74.8,150.9,100.9z"/>
		<path class="st1" d="M158.3,83.5c-0.1-0.3-0.1-0.5-0.2-0.7l-0.2-0.8l-1.7,0.5l0.2,0.7l0.2,0.6c4.6,20.3,0.7,38.7-13.5,54.3
			c-14.5,15.9-32.8,21.4-54,18.4c-0.1,0.6-0.1,1.1-0.2,1.8c1.5,0.2,2.8,0.5,4,0.6c2.4,0.2,4.7,0.4,7.1,0.4
			c17.6-0.2,32.6-6.6,44.4-19.7C158.8,123.5,163.4,104.6,158.3,83.5z"/>
		<path class="st1" d="M110.4,41.2c19,3.5,32.8,14.4,42,31.4l1.5-0.8C135.1,34,85.8,28.2,59,54.3l1.1,1.3
			C74.7,42.9,91.5,37.8,110.4,41.2z"/>
		<path class="st1" d="M43.5,115c-5.4-18.6-1.7-35.8,9.4-51.6l-1.4-1c-24.6,32.7-10.1,79.3,26.7,92.8l0.6-1.6
			C61,146.2,48.9,133.5,43.5,115z"/>
	</g>
</g>
</svg>
