<?xml version="1.0" encoding="utf-8"?>
<!-- Generator: Adobe Illustrator 24.3.0, SVG Export Plug-In . SVG Version: 6.00 Build 0)  -->
<svg version="1.1" id="Capa_1" xmlns="http://www.w3.org/2000/svg" xmlns:xlink="http://www.w3.org/1999/xlink" x="0px" y="0px"
	 viewBox="0 0 437.8 437.8" style="enable-background:new 0 0 437.8 437.8;" xml:space="preserve">
<style type="text/css">
	.st0{fill:#FFFFFF;}
</style>
<g>
	<g>
		<g>
			<circle class="st0" cx="152" cy="390.8" r="47"/>
			<circle class="st0" cx="350.6" cy="390.8" r="47"/>
			<path class="st0" d="M114.9,82L98.7,32.9C92.3,13.5,74.3,0.3,53.8,0h-35C13,0,8.4,4.7,8.4,10.4S13,20.9,18.8,20.9h35
				c11.4,0.3,21.4,7.5,25.1,18.3l65.8,200.1l-4.7,12c-5.7,15-4.2,31.8,4.2,45.5c8.7,13.3,23.3,21.5,39.2,21.9h203.8
				c5.8,0,10.4-4.7,10.4-10.4s-4.7-10.4-10.4-10.4H183.4c-8.8-0.3-16.8-5-21.4-12.5c-4.9-7.4-5.9-16.8-2.6-25.1l6.3-15.7
				c0.9-2.5,1.1-5.2,0.5-7.8l-3.1-7.8l212.6-21.9c15.5-1.4,28.3-12.6,31.9-27.7l21.9-92.5L114.9,82z"/>
		</g>
	</g>
</g>
</svg>
